<svg width="30" height="30" viewBox="0 0 30 30" fill="none" xmlns="http://www.w3.org/2000/svg">
<path d="M29.166 20.7883C29.166 21.1136 29.1518 21.4417 29.1234 21.7669C28.726 26.2423 25.6173 29.1667 21.1316 29.1667H8.86709C6.59588 29.1667 4.67955 28.4295 3.30263 27.093C2.76322 26.5973 2.30898 26.015 1.9541 25.3475C2.42254 24.7779 2.94776 24.1544 3.45878 23.5295C4.32468 22.4927 5.16218 21.4687 5.6874 20.8025C6.46813 19.8367 8.52641 17.2944 11.3796 18.4875C11.9616 18.7289 12.4726 19.0698 12.9411 19.368C14.0909 20.135 14.5735 20.3622 15.3826 19.9219C16.2769 19.439 16.8589 18.4875 17.4693 17.4932C17.7958 16.9663 18.1223 16.4564 18.4771 15.9877C20.0244 13.9709 22.4092 13.4312 24.3965 14.6242C25.3901 15.2208 26.2418 15.9735 27.0368 16.7391C27.2071 16.9095 27.3774 17.0672 27.5336 17.2234C27.7465 17.4364 28.4563 18.1466 29.166 18.8283V20.7883Z" fill="#130F26"/>
<path opacity="0.4" d="M8.86741 0.833313C4.05529 0.833313 0.833008 4.19941 0.833008 9.21164V20.7885C0.833008 22.534 1.23047 24.0836 1.95442 25.3476C2.42285 24.7781 2.94807 24.1546 3.45909 23.5282C4.32499 22.4928 5.1625 21.4688 5.68772 20.8027C6.46845 19.8369 8.52673 17.2945 11.3799 18.4876C11.9619 18.729 12.473 19.0699 12.9414 19.3682C14.0912 20.1351 14.5738 20.3624 15.3829 19.9207C16.2772 19.4392 16.8592 18.4876 17.4696 17.492C17.7961 16.9665 18.1226 16.4566 18.4775 15.9879C20.0247 13.971 22.4095 13.4313 24.3968 14.6244C25.3905 15.2209 26.2422 15.9737 27.0371 16.7392C27.2074 16.9096 27.3778 17.0673 27.5339 17.2235C27.7468 17.4351 28.4566 18.1453 29.1663 18.8285V9.21164C29.1663 4.19941 25.9441 0.833313 21.1461 0.833313H8.86741Z" fill="#130F26"/>
<path d="M10.5703 14.1192C8.57728 14.1192 6.91504 12.4575 6.91504 10.4619C6.91504 8.46785 8.57728 6.80469 10.5703 6.80469C12.5647 6.80469 14.2269 8.46785 14.2269 10.4619C14.2269 12.4575 12.5647 14.1192 10.5703 14.1192Z" fill="#130F26"/>
</svg>
