<svg width="40" height="40" viewBox="0 0 40 40" fill="none" xmlns="http://www.w3.org/2000/svg">
<path d="M37.6092 23.2864H34.9076V36.4226C34.9076 38.3984 33.3966 40 31.5338 40H8.46601C6.60314 40 5.09217 38.3984 5.09217 36.4226V23.2864H2.39053C0.251361 23.2864 -0.806857 20.5308 0.723876 18.9459L6.2354 13.2413V5.30767C6.2354 4.67091 6.72275 4.15416 7.32328 4.15416H10.6507C11.2512 4.15416 11.7385 4.67091 11.7385 5.30767V7.54551L18.333 0.719307C19.2597 -0.239769 20.7396 -0.239769 21.6663 0.719307L39.2759 18.9454C40.8071 20.5302 39.7484 23.2859 37.6092 23.2859V23.2864Z" fill="#1E67E7"/>
</svg>
