<svg width="32" height="32" viewBox="0 0 32 32" fill="none" xmlns="http://www.w3.org/2000/svg">
<path fill-rule="evenodd" clip-rule="evenodd" d="M4.33645 12.0371C4.05937 11.8062 3.64757 11.8437 3.41667 12.1207L0.151365 16.0391C-0.0504551 16.2813 -0.0504551 16.6331 0.151365 16.8752L3.41667 20.7936C3.64757 21.0707 4.05937 21.1081 4.33645 20.8772C4.61353 20.6463 4.65096 20.2345 4.42006 19.9574L2.04737 17.1102L8.4898 17.1102C8.85047 17.1102 9.14286 16.8178 9.14286 16.4572C9.14286 16.0965 8.85047 15.8041 8.4898 15.8041L2.04737 15.8041L4.42006 12.9569C4.65096 12.6798 4.61353 12.268 4.33645 12.0371Z" fill="white"/>
<path fill-rule="evenodd" clip-rule="evenodd" d="M20.9629 4.33645C21.1938 4.05937 21.1563 3.64757 20.8793 3.41667L16.9609 0.151365C16.7187 -0.0504553 16.3669 -0.0504553 16.1248 0.151365L12.2064 3.41667C11.9293 3.64757 11.8919 4.05937 12.1228 4.33645C12.3537 4.61353 12.7655 4.65096 13.0426 4.42006L15.8898 2.04737L15.8898 8.4898C15.8898 8.85047 16.1822 9.14286 16.5428 9.14286C16.9035 9.14286 17.1959 8.85047 17.1959 8.4898L17.1959 2.04737L20.0431 4.42006C20.3202 4.65096 20.732 4.61353 20.9629 4.33645Z" fill="white"/>
<path fill-rule="evenodd" clip-rule="evenodd" d="M20.9629 27.6636C21.1938 27.9406 21.1563 28.3524 20.8793 28.5833L16.9609 31.8486C16.7187 32.0505 16.3669 32.0505 16.1248 31.8486L12.2064 28.5833C11.9293 28.3524 11.8919 27.9406 12.1228 27.6636C12.3537 27.3865 12.7655 27.349 13.0426 27.5799L15.8898 29.9526L15.8898 23.5102C15.8898 23.1495 16.1822 22.8571 16.5428 22.8571C16.9035 22.8571 17.1959 23.1495 17.1959 23.5102L17.1959 29.9526L20.0431 27.5799C20.3202 27.349 20.732 27.3865 20.9629 27.6636Z" fill="white"/>
<path fill-rule="evenodd" clip-rule="evenodd" d="M27.6636 12.0371C27.9406 11.8062 28.3524 11.8437 28.5833 12.1207L31.8486 16.0391C32.0505 16.2813 32.0505 16.6331 31.8486 16.8752L28.5833 20.7936C28.3524 21.0707 27.9406 21.1081 27.6636 20.8772C27.3865 20.6463 27.349 20.2345 27.5799 19.9574L29.9526 17.1102L23.5102 17.1102C23.1495 17.1102 22.8571 16.8178 22.8571 16.4572C22.8571 16.0965 23.1495 15.8041 23.5102 15.8041L29.9526 15.8041L27.5799 12.9569C27.349 12.6798 27.3865 12.268 27.6636 12.0371Z" fill="white"/>
<circle cx="15.9999" cy="15.9999" r="7.02143" stroke="white" stroke-width="1.5"/>
</svg>
