<svg width="33" height="20" viewBox="0 0 33 20" fill="none" xmlns="http://www.w3.org/2000/svg">
<path d="M21.2309 19.5805C20.6634 19.5805 20.224 19.4249 19.9127 19.1137C19.6015 18.7841 19.4459 18.3356 19.4459 17.768V1.92237C19.4459 1.33651 19.5923 0.897114 19.8853 0.604184C20.1965 0.292948 20.6359 0.137329 21.2034 0.137329C21.771 0.137329 22.2012 0.292948 22.4942 0.604184C22.8054 0.897114 22.961 1.33651 22.961 1.92237V16.5871H30.925C31.4194 16.5871 31.7947 16.7153 32.051 16.9716C32.3256 17.2279 32.4629 17.5941 32.4629 18.0701C32.4629 18.5461 32.3256 18.9214 32.051 19.1961C31.7947 19.4524 31.4194 19.5805 30.925 19.5805H21.2309Z" fill="white"/>
<path d="M1.65383 19.8002C1.19613 19.8002 0.820813 19.6812 0.527883 19.4432C0.234954 19.1869 0.061027 18.8756 0.0061027 18.5095C-0.0305135 18.125 0.0976432 17.7405 0.390573 17.3561L6.6794 8.98012V10.4905L0.692656 2.47159C0.399727 2.06882 0.27157 1.68435 0.308186 1.31818C0.344802 0.933713 0.509575 0.622475 0.802505 0.38447C1.09543 0.128157 1.4616 0 1.90099 0C2.26715 0 2.58754 0.091541 2.86217 0.274623C3.15509 0.439396 3.44802 0.72317 3.74095 1.12595L8.68414 7.93656H7.55819L12.4739 1.12595C12.7668 0.72317 13.0506 0.439396 13.3252 0.274623C13.6182 0.091541 13.9569 0 14.3413 0C14.799 0 15.1744 0.119003 15.4673 0.357008C15.7602 0.595013 15.925 0.906251 15.9616 1.29072C15.9982 1.65688 15.8609 2.05051 15.5497 2.47159L9.56293 10.4905V8.98012L15.8243 17.3561C16.1172 17.7405 16.2454 18.125 16.2088 18.5095C16.1721 18.8756 16.0074 19.1869 15.7144 19.4432C15.4215 19.6812 15.037 19.8002 14.561 19.8002C14.2132 19.8002 13.8928 19.7087 13.5999 19.5256C13.3252 19.3425 13.0323 19.0496 12.7211 18.6468L7.50327 11.5066H8.7116L3.52126 18.6468C3.22833 19.0496 2.9354 19.3425 2.64247 19.5256C2.34954 19.7087 2.01999 19.8002 1.65383 19.8002Z" fill="white"/>
</svg>
