<svg width="31" height="30" viewBox="0 0 31 30" fill="none" xmlns="http://www.w3.org/2000/svg">
<path d="M27.9402 3.26654C31.1916 6.36287 30.7127 14.8795 30.5309 19.1696C30.1834 27.353 27.7476 29.5148 19.4607 29.8393C15.2606 30.0032 6.67311 30.4194 3.58197 27.4765C0.330607 24.3801 0.80949 15.8652 0.991321 11.5734C1.33158 3.53985 3.67379 1.24405 11.8832 0.905499C16.1049 0.730934 24.8437 0.318325 27.9402 3.26654ZM10.1441 3.61038C5.27967 3.95775 3.95824 5.90618 3.69179 10.5154C3.52616 13.409 3.52616 17.334 3.69179 20.2276C3.96724 25.0202 5.4453 26.8787 10.452 27.1838C13.5683 27.3742 17.9539 27.3742 21.0702 27.1838C23.497 27.0356 25.8752 26.5578 27.0508 24.225C28.2265 21.8921 28.0068 12.9875 27.8214 10.1716C27.5081 5.4248 25.7096 3.81316 20.8992 3.55043C17.7 3.37586 13.3307 3.38115 10.1423 3.61038H10.1441Z" fill="white"/>
<path d="M23.3242 15.3717C23.3242 19.4625 19.9378 22.7792 15.7611 22.7792C11.5844 22.7792 8.198 19.4625 8.198 15.3717C8.198 11.2809 11.5844 7.96411 15.7611 7.96411C19.9378 7.96411 23.3242 11.2809 23.3242 15.3717ZM20.6706 15.3717C20.6706 12.7179 18.4742 10.5685 15.7665 10.5685C13.0588 10.5685 10.8625 12.7197 10.8625 15.3717C10.8625 18.0237 13.0588 20.1749 15.7665 20.1749C18.4742 20.1749 20.6706 18.0237 20.6706 15.3717Z" fill="white"/>
<path d="M24.8925 8.97454C23.2992 10.5368 20.7031 7.9871 22.2928 6.42836C23.8825 4.86961 26.5127 7.38582 24.8925 8.97454Z" fill="white"/>
</svg>
