<svg width="18" height="30" viewBox="0 0 18 30" fill="none" xmlns="http://www.w3.org/2000/svg">
<path d="M8.88228 22.0613C8.48276 22.0613 8.16885 21.9359 7.94055 21.6852C7.71225 21.4345 7.5981 21.0724 7.5981 20.5989C7.5981 19.6518 7.71225 18.7604 7.94055 17.9248C8.16885 17.0891 8.53983 16.2535 9.05351 15.4178C9.59572 14.5543 10.3092 13.6212 11.1938 12.6184C11.8787 11.8384 12.4209 11.1421 12.8205 10.5292C13.2485 9.91644 13.5482 9.33148 13.7194 8.77437C13.9191 8.18942 14.019 7.59053 14.019 6.97772C14.019 5.86351 13.6052 4.98607 12.7776 4.3454C11.9786 3.67688 10.8514 3.34262 9.39596 3.34262C8.11177 3.34262 6.92747 3.53761 5.84304 3.92758C4.78716 4.28969 3.75981 4.80501 2.761 5.47354C2.3044 5.77995 1.87634 5.93315 1.47681 5.93315C1.07729 5.93315 0.749108 5.82173 0.492271 5.59889C0.263971 5.37605 0.107015 5.09749 0.0214031 4.76323C-0.0356718 4.42897 0.0214031 4.08078 0.192628 3.71866C0.363853 3.32869 0.663496 2.9805 1.09156 2.67409C2.23306 1.83844 3.56005 1.18385 5.07253 0.710307C6.58502 0.236769 8.08323 0 9.56718 0C11.2509 0 12.7206 0.278552 13.9762 0.835656C15.2319 1.39276 16.2164 2.1727 16.9298 3.17549C17.6433 4.15042 18 5.30641 18 6.64346C18 7.53482 17.8716 8.37047 17.6147 9.15042C17.3579 9.93036 16.9441 10.7242 16.3734 11.532C15.8026 12.3398 15.0321 13.2312 14.0618 14.2061C13.1772 15.0975 12.4495 15.9192 11.8787 16.6713C11.3365 17.3955 10.937 18.0919 10.6801 18.7604C10.4518 19.429 10.2949 20.1532 10.2093 20.9331C10.1807 21.2674 10.0523 21.546 9.82402 21.7688C9.59572 21.9638 9.28181 22.0613 8.88228 22.0613ZM8.83948 30C8.06897 30 7.44114 29.7632 6.95601 29.2897C6.49941 28.8162 6.27111 28.2173 6.27111 27.493C6.27111 26.7688 6.49941 26.1838 6.95601 25.7382C7.44114 25.2925 8.06897 25.0696 8.83948 25.0696C9.60999 25.0696 10.2235 25.2925 10.6801 25.7382C11.1367 26.1838 11.365 26.7688 11.365 27.493C11.365 28.2173 11.1367 28.8162 10.6801 29.2897C10.2235 29.7632 9.60999 30 8.83948 30Z" fill="white"/>
</svg>
