<svg width="13" height="31" viewBox="0 0 13 31" fill="none" xmlns="http://www.w3.org/2000/svg">
<path d="M10.8531 13.863C10.8531 15.112 10.5041 17.0565 9.80594 19.6965C9.10782 22.3081 8.75876 24.0113 8.75876 24.8062C8.75876 25.601 8.91234 25.9984 9.21952 25.9984C9.52669 25.9984 10.0852 25.8565 10.895 25.5726L11.272 25.4023L12.026 27.5313C11.0765 28.2694 9.88971 28.9223 8.46555 29.49C7.0693 30.0577 5.79872 30.3416 4.6538 30.3416C3.50888 30.3416 2.60132 30.0152 1.93112 29.3623C1.28885 28.7094 0.967712 27.7726 0.967712 26.552C0.967712 25.3029 1.30281 23.4152 1.97301 20.8887C2.67113 18.3339 3.02019 16.7159 3.02019 16.0346C3.02019 14.9843 2.65717 13.9907 1.93112 13.0539L1.59602 12.5856L1.72168 11.8617C3.17378 11.4075 5.99419 11.1804 10.1829 11.1804C10.6297 11.6914 10.8531 12.5856 10.8531 13.863ZM7.71157 7.85913C6.45495 7.85913 5.46362 7.51849 4.73757 6.8372C4.03945 6.15591 3.69039 5.29011 3.69039 4.2398C3.69039 3.16109 4.12322 2.2669 4.9889 1.55723C5.88249 0.819165 6.9576 0.450134 8.21422 0.450134C9.47084 0.450134 10.4482 0.748198 11.1463 1.34432C11.8445 1.94045 12.1935 2.77787 12.1935 3.85657C12.1935 4.93528 11.7607 5.87205 10.895 6.66688C10.0573 7.46172 8.99612 7.85913 7.71157 7.85913Z" fill="white"/>
</svg>
