<svg width="16" height="16" viewBox="0 0 16 16" fill="none" xmlns="http://www.w3.org/2000/svg">
<path d="M10.5858 2.41421L3.39171 9.60829C3.19706 9.80294 3.09974 9.90026 3.03276 10.0186C2.96579 10.1368 2.93241 10.2704 2.86564 10.5374L2.20211 13.1915C2.11186 13.5526 2.06673 13.7331 2.16682 13.8332C2.2669 13.9333 2.44742 13.8881 2.80844 13.7979L2.80845 13.7979L5.46257 13.1344C5.72963 13.0676 5.86316 13.0342 5.98145 12.9672C6.09974 12.9003 6.19706 12.8029 6.39171 12.6083L13.5858 5.41421L13.5858 5.41421C14.2525 4.74755 14.5858 4.41421 14.5858 4C14.5858 3.58579 14.2525 3.25245 13.5858 2.58579L13.4142 2.41421C12.7475 1.74755 12.4142 1.41421 12 1.41421C11.5858 1.41421 11.2525 1.74755 10.5858 2.41421Z" fill="#1E67E7"/>
<path d="M12 0.814453C12.391 0.814453 12.7047 0.980113 12.9766 1.1875C13.2345 1.38432 13.5176 1.669 13.8389 1.99023L14.0098 2.16113L14.458 2.61621C14.5939 2.75927 14.7141 2.89449 14.8125 3.02344C15.0199 3.29525 15.1855 3.60896 15.1855 4C15.1855 4.39104 15.0199 4.70475 14.8125 4.97656C14.7141 5.10551 14.5939 5.24073 14.458 5.38379L14.0098 5.83887L6.81641 13.0322C6.68725 13.1614 6.56404 13.289 6.42383 13.3936L6.27734 13.4893C6.17462 13.5474 6.06608 13.5892 5.9541 13.624L5.6084 13.7168L2.9541 14.3799C2.79316 14.4201 2.60594 14.4689 2.44824 14.4844C2.30368 14.4985 2.05623 14.4989 1.83496 14.3369L1.74219 14.2578C1.5009 14.0165 1.49947 13.7169 1.51562 13.5518C1.53105 13.3941 1.57988 13.2068 1.62012 13.0459L2.2832 10.3916L2.37598 10.0459C2.41081 9.93392 2.45258 9.82538 2.51074 9.72266L2.60645 9.57617C2.71097 9.43596 2.83862 9.31275 2.96777 9.18359L10.1611 1.99023L10.6162 1.54199C10.7593 1.40612 10.8945 1.2859 11.0234 1.1875C11.2953 0.980113 11.609 0.814453 12 0.814453Z" stroke="#5F9DE7" stroke-opacity="0.48" stroke-width="1.2"/>
</svg>
