<svg width="30" height="31" viewBox="0 0 30 31" fill="none" xmlns="http://www.w3.org/2000/svg">
<path d="M19.1666 8.44444C19.1666 7.33937 18.7277 6.27956 17.9463 5.49816C17.1649 4.71676 16.105 4.27777 15 4.27777C13.8949 4.27777 12.8351 4.71676 12.0537 5.49816C11.2723 6.27956 10.8333 7.33937 10.8333 8.44444C10.8333 9.54951 11.2723 10.6093 12.0537 11.3907C12.8351 12.1721 13.8949 12.6111 15 12.6111C16.105 12.6111 17.1649 12.1721 17.9463 11.3907C18.7277 10.6093 19.1666 9.54951 19.1666 8.44444ZM8.33331 8.44444C8.33331 6.67633 9.03569 4.98064 10.2859 3.73039C11.5362 2.48015 13.2319 1.77777 15 1.77777C16.7681 1.77777 18.4638 2.48015 19.714 3.73039C20.9643 4.98064 21.6666 6.67633 21.6666 8.44444C21.6666 10.2125 20.9643 11.9082 19.714 13.1585C18.4638 14.4087 16.7681 15.1111 15 15.1111C13.2319 15.1111 11.5362 14.4087 10.2859 13.1585C9.03569 11.9082 8.33331 10.2125 8.33331 8.44444ZM5.90102 25.9444H24.0989C23.6354 22.6476 20.8021 20.1111 17.3802 20.1111H12.6198C9.1979 20.1111 6.36456 22.6476 5.90102 25.9444ZM3.33331 26.8976C3.33331 21.7674 7.48956 17.6111 12.6198 17.6111H17.3802C22.5104 17.6111 26.6666 21.7674 26.6666 26.8976C26.6666 27.7517 25.9739 28.4444 25.1198 28.4444H4.88019C4.02602 28.4444 3.33331 27.7517 3.33331 26.8976Z" fill="#1e67e7"/>
</svg>
