<svg width="28" height="26" viewBox="0 0 28 26" fill="none" xmlns="http://www.w3.org/2000/svg">
<path d="M4.7794 6.83098C5.77345 5.04388 7.23956 3.58204 9.01563 2.60708C10.7917 1.63212 12.8085 1.18202 14.8432 1.30653C16.8778 1.43105 18.851 2.12533 20.5446 3.31263C22.2381 4.49992 23.5861 6.13398 24.4395 8.03413M2.19373 3.32017L3.25949 7.76709C3.44101 8.52449 4.18828 9.00174 4.92856 8.83305L9.27497 7.84264M24.0508 18.2212C23.0567 20.0083 21.5906 21.4701 19.8146 22.4451C18.0385 23.42 16.0217 23.8701 13.987 23.7456C11.9524 23.6211 9.97919 22.9268 8.28563 21.7395C6.59206 20.5522 5.24409 18.9182 4.39073 17.018M26.6365 21.732L25.5707 17.2851C25.3892 16.5277 24.6419 16.0504 23.9016 16.2191L19.5552 17.2095" stroke="white" stroke-width="2.5" stroke-linecap="round"/>
</svg>
